<?xml version="1.0" encoding="utf-8"?>
<!-- Generator: Adobe Illustrator 25.4.1, SVG Export Plug-In . SVG Version: 6.00 Build 0)  -->
<svg version="1.1" id="Capa_1" xmlns="http://www.w3.org/2000/svg" xmlns:xlink="http://www.w3.org/1999/xlink" x="0px" y="0px"
	 viewBox="0 0 595.28 841.89" style="enable-background:new 0 0 595.28 841.89;" xml:space="preserve">
<style type="text/css">
	.st0{display:none;fill:#010202;}
	.st1{fill:#010202;}
	.st2{display:none;}
	.st3{display:inline;fill:#010202;}
</style>
<rect x="220.01" y="251.92" class="st0" width="153.34" height="339"/>
<polygon class="st1" points="232.03,311.29 244.03,298.59 244.03,278.49 220.03,254.49 220.03,275.92 220.03,298.59 "/>
<g>
	<polygon class="st1" points="232.03,361.29 244.03,348.59 244.03,329.26 232.03,316.53 220.03,329.26 220.03,348.59 	"/>
</g>
<g>
	<polygon class="st1" points="232.03,411.29 244.03,398.59 244.03,379.26 232.03,366.53 220.03,379.26 220.03,398.59 	"/>
</g>
<polygon class="st1" points="244.05,578.89 244.03,528.69 232.05,516.53 220.05,528.69 220.05,578.89 220.03,578.91 232.05,590.92 
	244.06,578.91 "/>
<polygon class="st1" points="350.11,301.92 345.03,301.92 252.93,301.92 244.93,301.92 232.93,313.92 244.93,325.92 252.93,325.92 
	345.03,325.92 350.11,325.92 362.11,313.92 "/>
<polygon class="st1" points="355.03,251.92 349.7,251.92 244.03,251.92 238.7,251.92 221.7,251.92 245.7,275.92 258.7,275.92 
	335.03,275.92 349.36,275.92 373.36,251.92 "/>
<polygon class="st0" points="363.03,311.29 351.03,298.59 351.03,278.49 375.03,254.49 375.03,275.92 375.03,298.59 "/>
<polygon class="st1" points="350.11,351.92 345.03,351.92 252.93,351.92 244.93,351.92 232.93,363.92 244.93,375.92 252.93,375.92 
	345.03,375.92 350.11,375.92 362.11,363.92 "/>
<polygon class="st1" points="350.11,401.92 345.03,401.92 252.93,401.92 244.93,401.92 232.93,413.92 244.93,425.92 252.93,425.92 
	345.03,425.92 350.11,425.92 362.11,413.92 "/>
<g>
	<polygon class="st1" points="232.03,461.29 244.03,448.59 244.03,429.26 232.03,416.53 220.03,429.26 220.03,448.59 	"/>
</g>
<polygon class="st0" points="350.11,451.91 345.03,451.91 252.93,451.91 244.93,451.91 232.93,463.91 244.93,475.91 252.93,475.91 
	345.03,475.91 350.11,475.91 362.11,463.91 "/>
<g>
	<polygon class="st1" points="232.03,511.29 244.03,498.59 244.03,479.26 232.03,466.53 220.03,479.26 220.03,498.59 	"/>
</g>
<polygon class="st0" points="350.11,501.91 345.03,501.91 252.93,501.91 244.93,501.91 232.93,513.91 244.93,525.91 252.93,525.91 
	345.03,525.91 350.11,525.91 362.11,513.91 "/>
<polygon class="st0" points="297.53,313.6 309.53,300.9 309.53,280.81 285.53,256.81 285.53,278.24 285.53,300.9 "/>
<polygon class="st0" points="280.11,301.92 275.03,301.92 252.93,301.92 244.93,301.92 232.93,313.92 244.93,325.92 252.93,325.92 
	275.03,325.92 280.11,325.92 292.11,313.92 "/>
<polygon class="st0" points="350.11,301.92 345.03,301.92 322.93,301.92 314.93,301.92 302.93,313.92 314.93,325.92 322.93,325.92 
	345.03,325.92 350.11,325.92 362.11,313.92 "/>
<g class="st2">
	<polygon class="st3" points="297.53,313.6 309.53,300.9 309.53,278.57 285.53,278.57 285.53,300.9 	"/>
</g>
</svg>
